<svg width="58" height="58" viewBox="0 0 58 58" fill="none" xmlns="http://www.w3.org/2000/svg">
<rect width="58" height="58" rx="29" fill="#27374E"/>
<path d="M23.5833 33.3334C24.0143 33.3334 24.4276 33.1621 24.7324 32.8574C25.0371 32.5527 25.2083 32.1393 25.2083 31.7084C25.2124 31.6543 25.2124 31.5999 25.2083 31.5459L28.2308 28.5234H28.7292L30.4733 30.2675V30.3542C30.4733 30.7852 30.6445 31.1985 30.9493 31.5032C31.254 31.808 31.6674 31.9792 32.0983 31.9792C32.5293 31.9792 32.9426 31.808 33.2474 31.5032C33.5521 31.1985 33.7233 30.7852 33.7233 30.3542V30.2675L37.6667 26.2917C37.9881 26.2917 38.3022 26.1964 38.5695 26.0178C38.8367 25.8393 39.045 25.5855 39.168 25.2885C39.291 24.9916 39.3231 24.6649 39.2604 24.3497C39.1977 24.0344 39.043 23.7449 38.8157 23.5176C38.5885 23.2904 38.2989 23.1356 37.9837 23.0729C37.6685 23.0102 37.3417 23.0424 37.0448 23.1654C36.7479 23.2884 36.4941 23.4967 36.3155 23.7639C36.137 24.0311 36.0417 24.3453 36.0417 24.6667C36.0376 24.7208 36.0376 24.7751 36.0417 24.8292L32.1308 28.74H31.9575L30.0833 26.8334C30.0833 26.4024 29.9121 25.9891 29.6074 25.6843C29.3026 25.3796 28.8893 25.2084 28.4583 25.2084C28.0274 25.2084 27.614 25.3796 27.3093 25.6843C27.0045 25.9891 26.8333 26.4024 26.8333 26.8334L23.5833 30.0834C23.1524 30.0834 22.739 30.2546 22.4343 30.5593C22.1295 30.8641 21.9583 31.2774 21.9583 31.7084C21.9583 32.1393 22.1295 32.5527 22.4343 32.8574C22.739 33.1621 23.1524 33.3334 23.5833 33.3334ZM38.2083 37.6667H19.7917V19.25C19.7917 18.9627 19.6775 18.6872 19.4744 18.484C19.2712 18.2808 18.9957 18.1667 18.7083 18.1667C18.421 18.1667 18.1455 18.2808 17.9423 18.484C17.7391 18.6872 17.625 18.9627 17.625 19.25V38.75C17.625 39.0373 17.7391 39.3129 17.9423 39.5161C18.1455 39.7192 18.421 39.8334 18.7083 39.8334H38.2083C38.4956 39.8334 38.7712 39.7192 38.9744 39.5161C39.1775 39.3129 39.2917 39.0373 39.2917 38.75C39.2917 38.4627 39.1775 38.1872 38.9744 37.984C38.7712 37.7808 38.4956 37.6667 38.2083 37.6667Z" fill="#FFA629"/>
</svg>
