<svg width="58" height="58" viewBox="0 0 58 58" fill="none" xmlns="http://www.w3.org/2000/svg">
<rect width="58" height="58" rx="29" fill="#27374E"/>
<path d="M27.375 19.25H24.125C23.3781 19.25 22.6385 19.3971 21.9485 19.6829C21.2584 19.9688 20.6315 20.3877 20.1033 20.9158C19.5752 21.444 19.1563 22.0709 18.8704 22.761C18.5846 23.451 18.4375 24.1906 18.4375 24.9375C18.4375 25.6844 18.5846 26.424 18.8704 27.114C19.1563 27.8041 19.5752 28.431 20.1033 28.9592C20.6315 29.4873 21.2584 29.9062 21.9485 30.1921C22.6385 30.4779 23.3781 30.625 24.125 30.625H27.375V35.5H20.0625V38.75H27.375V42H30.625V38.75H33.875C35.3834 38.75 36.8301 38.1508 37.8967 37.0842C38.9633 36.0176 39.5625 34.5709 39.5625 33.0625C39.5625 31.5541 38.9633 30.1074 37.8967 29.0408C36.8301 27.9742 35.3834 27.375 33.875 27.375H30.625V22.5H37.9375V19.25H30.625V16H27.375V19.25ZM30.625 30.625H33.875C34.5215 30.625 35.1415 30.8818 35.5986 31.3389C36.0557 31.796 36.3125 32.416 36.3125 33.0625C36.3125 33.709 36.0557 34.329 35.5986 34.7861C35.1415 35.2432 34.5215 35.5 33.875 35.5H30.625V30.625ZM27.375 27.375H24.125C23.8049 27.375 23.4879 27.312 23.1922 27.1895C22.8965 27.067 22.6278 26.8874 22.4014 26.6611C22.1751 26.4347 21.9955 26.166 21.873 25.8703C21.7505 25.5746 21.6875 25.2576 21.6875 24.9375C21.6875 24.6174 21.7505 24.3004 21.873 24.0047C21.9955 23.709 22.1751 23.4403 22.4014 23.2139C22.6278 22.9876 22.8965 22.808 23.1922 22.6855C23.4879 22.563 23.8049 22.5 24.125 22.5H27.375V27.375Z" fill="#FFA629"/>
</svg>
