<svg width="26" height="26" viewBox="0 0 26 26" fill="none" xmlns="http://www.w3.org/2000/svg">
<path d="M8.44996 2.16675H17.55C21.0166 2.16675 23.8333 4.98341 23.8333 8.45008V17.5501C23.8333 19.2165 23.1713 20.8147 21.9929 21.9931C20.8146 23.1714 19.2164 23.8334 17.55 23.8334H8.44996C4.98329 23.8334 2.16663 21.0168 2.16663 17.5501V8.45008C2.16663 6.78364 2.82862 5.18545 4.00697 4.00709C5.18533 2.82874 6.78352 2.16675 8.44996 2.16675ZM8.23329 4.33341C7.19895 4.33341 6.20697 4.74431 5.47558 5.4757C4.74418 6.20709 4.33329 7.19907 4.33329 8.23341V17.7667C4.33329 19.9226 6.07746 21.6667 8.23329 21.6667H17.7666C18.801 21.6667 19.793 21.2559 20.5243 20.5245C21.2557 19.7931 21.6666 18.8011 21.6666 17.7667V8.23341C21.6666 6.07758 19.9225 4.33341 17.7666 4.33341H8.23329ZM18.6875 5.95841C19.0466 5.95841 19.391 6.10109 19.645 6.35504C19.899 6.609 20.0416 6.95343 20.0416 7.31258C20.0416 7.67173 19.899 8.01617 19.645 8.27012C19.391 8.52408 19.0466 8.66675 18.6875 8.66675C18.3283 8.66675 17.9839 8.52408 17.7299 8.27012C17.476 8.01617 17.3333 7.67173 17.3333 7.31258C17.3333 6.95343 17.476 6.609 17.7299 6.35504C17.9839 6.10109 18.3283 5.95841 18.6875 5.95841ZM13 7.58342C14.4365 7.58342 15.8143 8.1541 16.8301 9.16992C17.8459 10.1857 18.4166 11.5635 18.4166 13.0001C18.4166 14.4367 17.8459 15.8144 16.8301 16.8302C15.8143 17.8461 14.4365 18.4167 13 18.4167C11.5634 18.4167 10.1856 17.8461 9.1698 16.8302C8.15398 15.8144 7.58329 14.4367 7.58329 13.0001C7.58329 11.5635 8.15398 10.1857 9.1698 9.16992C10.1856 8.1541 11.5634 7.58342 13 7.58342ZM13 9.75008C12.138 9.75008 11.3114 10.0925 10.7019 10.702C10.0924 11.3115 9.74996 12.1381 9.74996 13.0001C9.74996 13.862 10.0924 14.6887 10.7019 15.2982C11.3114 15.9077 12.138 16.2501 13 16.2501C13.8619 16.2501 14.6886 15.9077 15.2981 15.2982C15.9076 14.6887 16.25 13.862 16.25 13.0001C16.25 12.1381 15.9076 11.3115 15.2981 10.702C14.6886 10.0925 13.8619 9.75008 13 9.75008Z" fill="#FFA629"/>
</svg>
