<svg width="26" height="26" viewBox="0 0 26 26" fill="none" xmlns="http://www.w3.org/2000/svg">
<path d="M13 3.25C15.3942 3.25 17.3334 5.18917 17.3334 7.58333C17.3334 9.9775 15.3942 11.9167 13 11.9167C10.6059 11.9167 8.66671 9.9775 8.66671 7.58333C8.66671 5.18917 10.6059 3.25 13 3.25ZM17.3334 14.6683C17.3334 15.8167 17.03 18.4925 14.9609 21.4825L14.0834 16.25L15.1017 14.2133C14.43 14.1375 13.7259 14.0833 13 14.0833C12.2742 14.0833 11.57 14.1375 10.8984 14.2133L11.9167 16.25L11.0392 21.4825C8.97004 18.4925 8.66671 15.8167 8.66671 14.6683C6.07754 15.4267 4.33337 16.7917 4.33337 18.4167V22.75H21.6667V18.4167C21.6667 16.7917 19.9334 15.4267 17.3334 14.6683Z" fill="#FFA629"/>
</svg>
