<svg width="58" height="58" viewBox="0 0 58 58" fill="none" xmlns="http://www.w3.org/2000/svg">
<rect width="58" height="58" rx="29" fill="#27374E"/>
<path d="M29 19.25C31.3942 19.25 33.3334 21.1892 33.3334 23.5833C33.3334 25.9775 31.3942 27.9167 29 27.9167C26.6059 27.9167 24.6667 25.9775 24.6667 23.5833C24.6667 21.1892 26.6059 19.25 29 19.25ZM33.3334 30.6683C33.3334 31.8167 33.03 34.4925 30.9609 37.4825L30.0834 32.25L31.1017 30.2133C30.43 30.1375 29.7259 30.0833 29 30.0833C28.2742 30.0833 27.57 30.1375 26.8984 30.2133L27.9167 32.25L27.0392 37.4825C24.97 34.4925 24.6667 31.8167 24.6667 30.6683C22.0775 31.4267 20.3334 32.7917 20.3334 34.4167V38.75H37.6667V34.4167C37.6667 32.7917 35.9334 31.4267 33.3334 30.6683Z" fill="#FFA629"/>
</svg>
